<svg width="394" height="130" fill="none" xmlns="http://www.w3.org/2000/svg"><path d="M.72 122.768A2.416 2.416 0 0 1 .592 122c0-.512.213-.981.64-1.408.427-.427.725-.896.896-1.408.341-.853.896-1.963 1.664-3.328.768-1.365 2.005-3.328 3.712-5.888 1.707-2.56 4.139-6.101 7.296-10.624 1.792-2.56 3.712-5.333 5.76-8.32l4.224-6.016c.939-1.28 1.835-2.56 2.688-3.84 1.45-2.133 2.475-3.584 3.072-4.352.427-.512 2.219-3.157 5.376-7.936l3.584-5.376c.939-1.28 1.621-2.261 2.048-2.944.427-.768.725-1.408.896-1.92.256-.512.47-1.11.64-1.792 2.475-7.339 4.181-14.763 5.12-22.272.939-7.595.981-14.037.128-19.328-.597-3.243-1.536-5.803-2.816-7.68a3.418 3.418 0 0 0-.896-.64c-.256-.17-.725-.384-1.408-.64a56.207 56.207 0 0 1-3.072-1.28c-.853-.512-1.408-.981-1.664-1.408-.683-1.11-.512-1.963.512-2.56 1.024-.427 2.39-.256 4.096.512a14.633 14.633 0 0 1 4.608 2.944l.768.768c.256.17.512.299.768.384l1.536.384c4.437 1.28 9.728 2.39 15.872 3.328a227.815 227.815 0 0 0 18.176 2.048c1.365.085 3.285.17 5.76.256h7.296c2.389-.085 4.181-.17 5.376-.256 2.133-.17 4.821-.427 8.064-.768 3.243-.427 6.229-.81 8.96-1.152 2.731-.427 4.395-.725 4.992-.896.171 0 .299-.043.384-.128a.834.834 0 0 0 .384-.384c.085-.085.171-.128.256-.128l.256-.256c.085-.085.171-.128.256-.128.341-.17.725-.256 1.152-.256.427 0 .811.085 1.152.256v.256c.853.512 1.237 1.323 1.152 2.432 0 1.024-.427 1.835-1.28 2.432-.256.17-.512.299-.768.384-.171.085-.512.128-1.024.128-.427 0-1.067-.043-1.92-.128-.939-.085-3.2 0-6.784.256-3.669.341-6.656.555-8.96.64-2.304.085-5.163.17-8.576.256-6.656 0-12.544-.213-17.664-.64a139.2 139.2 0 0 0-4.48-.512c-1.536-.17-2.901-.299-4.096-.384-1.11-.17-1.75-.299-1.92-.384-.085-.085-.128-.085-.128 0l.128.384v.256c.085.17.128.341.128.512v.512c0 .341-.043.64-.128.896a7.012 7.012 0 0 1-.384.896c-.939 1.536-2.176 3.541-3.712 6.016a2155.304 2155.304 0 0 0-4.352 7.04 572.99 572.99 0 0 0-2.816 4.608c-1.195 1.963-3.157 5.035-5.888 9.216-2.645 4.096-4.95 7.637-6.912 10.624-.17.256-.299.47-.384.64a278.896 278.896 0 0 0-1.792 2.816 9.384 9.384 0 0 0-.768 1.664c-.256.683-.683 1.75-1.28 3.2a90.835 90.835 0 0 1-1.664 4.352 1661.97 1661.97 0 0 0-3.328 8.192c-2.901 5.803-7.51 13.312-13.824 22.528-2.304 3.243-4.48 6.144-6.528 8.704a281.711 281.711 0 0 1-6.784 8.192c-1.792 2.133-3.072 3.84-3.84 5.12a33.387 33.387 0 0 1-1.408 2.304 51.872 51.872 0 0 0-1.408 1.664c-1.792 1.451-3.456 1.493-4.992.128zm32.256-44.032a142.452 142.452 0 0 1 1.92-3.328c.512-.939.683-1.365.512-1.28 0 .085-.256.47-.768 1.152a87.478 87.478 0 0 0-1.664 2.816 596.591 596.591 0 0 1-3.968 6.144A590.616 590.616 0 0 1 25.424 90c-3.328 5.12-3.285 5.248.128.384 2.816-4.096 5.29-7.979 7.424-11.648zm35.84-66.048h-.128c.17-.17.256-.299.256-.384l.128-.128-.896-.128A40.756 40.756 0 0 1 66 11.664c-1.877-.256-4.224-.683-7.04-1.28a894.271 894.271 0 0 0-6.528-1.408c-.597-.17-1.11-.299-1.536-.384l-.512-.128.128.384c.085.256.213.597.384 1.024 1.536 3.243 2.304 7.765 2.304 13.568 0 6.656-1.11 13.995-3.328 22.016-.17.768-.341 1.493-.512 2.176-.17.597-.299.981-.384 1.152-.085.427 1.792-2.347 5.632-8.32 1.621-2.56 3.499-5.675 5.632-9.344 2.219-3.755 3.883-6.741 4.992-8.96 1.792-3.413 2.773-5.973 2.944-7.68.17-.939.384-1.536.64-1.792zm58.075 63.488h.128c.597-.256 1.109-.213 1.536.128.512.256.768.725.768 1.408 0 .597-.384 1.11-1.152 1.536-.427.256-.896.47-1.408.64-4.693 1.963-8.363 3.456-11.008 4.48-2.56 1.024-4.523 1.75-5.888 2.176-1.28.427-2.389.725-3.328.896-2.901.512-5.035 0-6.4-1.536-1.28-1.45-1.664-3.499-1.152-6.144.17-.853.384-1.835.64-2.944.341-1.11.725-2.09 1.152-2.944.085-.256.128-.47.128-.64l.128-.256-.512.384c-.256.256-.597.555-1.024.896l-1.536 1.408v1.024c-.512 3.413-1.621 5.12-3.328 5.12-.341 0-.683-.128-1.024-.384a2.33 2.33 0 0 1-.768-1.024c0-.085-.043-.128-.128-.128 0-.085-.043-.085-.128 0a3.817 3.817 0 0 1-.512.384c-.256.17-.597.427-1.024.768-.427.341-.981.768-1.664 1.28-2.73 2.133-4.95 3.84-6.656 5.12-1.707 1.28-3.285 2.304-4.736 3.072-5.035 2.816-8.277 2.603-9.728-.64-.512-1.28-.597-2.816-.256-4.608 1.45-5.717 5.803-11.392 13.056-17.024 5.632-4.181 10.112-4.992 13.44-2.432 1.024.768 1.75 1.835 2.176 3.2.17.427.299.81.384 1.152.17.256.299.384.384.384.17 0 .64-.299 1.408-.896a317.66 317.66 0 0 0 2.56-2.304 71.348 71.348 0 0 1 2.688-2.56c.853-.768 1.408-1.323 1.664-1.664.853-1.11 1.707-1.664 2.56-1.664 1.28 0 1.92.853 1.92 2.56-.085.341-.256.725-.512 1.152-.171.341-.427.81-.768 1.408a89.92 89.92 0 0 0-2.304 4.352c-.853 1.707-1.536 3.2-2.048 4.48a27.193 27.193 0 0 0-1.152 3.456 95.094 95.094 0 0 0-.768 2.816c-.085 1.621 1.28 2.133 4.096 1.536 1.451-.256 3.413-.81 5.888-1.664 2.475-.939 6.101-2.432 10.88-4.48a19.235 19.235 0 0 0 3.328-1.28zm-36.736.896.128.128c.768-.597 1.365-1.067 1.792-1.408.427-.341.725-.597.896-.768.17-.256.256-.427.256-.512.085-.17.128-.299.128-.384 0-.256-.043-.47-.128-.64 0-.17-.17-.384-.512-.64-1.792-1.365-4.565-.768-8.32 1.792-1.195.853-2.645 2.133-4.352 3.84-1.621 1.707-2.944 3.2-3.968 4.48l-2.048 3.072c-.597 1.024-.896 1.664-.896 1.92s.896-.043 2.688-.896c2.645-1.28 7.424-4.608 14.336-9.984zm55.721-12.416-.256.256c3.84.939 5.973 3.456 6.4 7.552.171 3.413-1.067 7.253-3.712 11.52-4.779 6.912-10.112 9.856-16 8.832-2.475-.512-4.181-1.621-5.12-3.328l-.512-.896-1.536 2.816-1.408 2.944v1.536c0 4.181-1.195 8.917-3.584 14.208-.768 1.792-1.835 3.883-3.2 6.272a187.09 187.09 0 0 1-4.48 6.784c-.427.683-1.067 1.493-1.92 2.432l-2.56 2.56c-.853.768-1.365 1.152-1.536 1.152-.085 0-.213-.085-.384-.256a1.99 1.99 0 0 1-.512-.384l-.128-.128c-.256-.171-.427-.341-.512-.512-.085-.085-.085-.299 0-.64 0-.085.043-.213.128-.384.171-.597.384-1.237.64-1.92.256-.597.853-1.877 1.792-3.84a222.754 222.754 0 0 1 3.2-6.4 126.088 126.088 0 0 1 3.072-6.016 124.437 124.437 0 0 1 2.176-4.096 97.603 97.603 0 0 0 2.56-5.248 5.02 5.02 0 0 1 .64-1.152c.853-1.536 1.451-2.688 1.792-3.456.341-.853.555-1.536.64-2.048 0-.512-.043-1.195-.128-2.048A2.425 2.425 0 0 1 121.3 90a24.741 24.741 0 0 1-.128-4.352c0-1.536.128-2.73.384-3.584.939-3.584 2.859-6.827 5.76-9.728l1.536-1.536.384-.256c.256-.256.555-.512.896-.768.427-.256.811-.512 1.152-.768 2.475-1.877 5.12-3.243 7.936-4.096.939-.256 2.048-.384 3.328-.384 1.365-.085 2.475-.043 3.328.128zm-24.32 35.2.256-.896-1.536 3.072a73.5 73.5 0 0 0-1.536 3.328 48.374 48.374 0 0 0-1.792 3.712 763.54 763.54 0 0 0-4.096 8.32c-1.365 2.731-2.432 4.779-3.2 6.144a7.878 7.878 0 0 0-.768 1.408l-.384.64.128-.128c.085 0 .213-.128.384-.384.171-.171.384-.469.64-.896 2.901-3.669 5.589-8.149 8.064-13.44 2.304-4.608 3.584-8.235 3.84-10.88zm4.864-15.232.256.256c.768-1.621 1.493-3.157 2.176-4.608.768-1.536 1.323-2.688 1.664-3.456.512-1.28.896-2.39 1.152-3.328.341-.939.469-1.493.384-1.664-.085-.085-.384.085-.896.512A27.76 27.76 0 0 0 129.364 74a50.911 50.911 0 0 0-2.048 2.176c-.683.683-1.195 1.28-1.536 1.792-1.877 2.901-2.816 5.59-2.816 8.064 0 .512.043 1.11.128 1.792 0 .683.043 1.28.128 1.792.085.427.171.64.256.64.085 0 .427-.555 1.024-1.664.512-1.11 1.152-2.432 1.92-3.968zm18.048.256v.128c1.877-1.963 3.328-4.053 4.352-6.272 1.109-2.304 1.621-4.31 1.536-6.016-.256-2.645-1.536-4.395-3.84-5.248-2.816-.853-6.272-.256-10.368 1.792-.597.256-.981.47-1.152.64-.085.085-.043.213.128.384.085.17.085.427 0 .768 0 .256-.128.683-.384 1.28-.171.597-.555 1.493-1.152 2.688a167.352 167.352 0 0 1-2.176 4.48c-.085.17-.171.384-.256.64l-1.536 3.072c-.341.768-.64 1.408-.896 1.92s-.427.896-.512 1.152c-.085.256-.128.47-.128.64 0 .085.043.128.128.128l.384.384c.171.17.341.384.512.64.597.853 1.493 1.408 2.688 1.664.683.17 1.451.256 2.304.256.939 0 1.835-.085 2.688-.256 2.731-.768 5.291-2.39 7.68-4.864zm49.218 1.92c-.939.256-1.792.47-2.56.64-2.901.512-5.035 0-6.4-1.536-1.28-1.45-1.664-3.499-1.152-6.144.171-.853.384-1.835.64-2.944.341-1.11.725-2.09 1.152-2.944.085-.256.171-.47.256-.64v-.256h-.128v.128l-.256.256a48.67 48.67 0 0 0-1.152.896c-5.205 4.437-8.021 6.827-8.448 7.168-.427.341-.981.768-1.664 1.28a445.625 445.625 0 0 1-6.656 5.12c-1.707 1.28-3.285 2.304-4.736 3.072-5.035 2.816-8.277 2.603-9.728-.64-2.133-4.01-2.389-8.576-.768-13.696 1.024-2.219 2.091-3.072 3.2-2.56s1.621 1.195 1.536 2.048c-.085.853-.256 1.45-.512 1.792-2.389 6.912-1.536 10.496 2.56 10.752 2.475-.853 4.395-1.835 5.76-2.944 3.072-1.963 7.168-5.205 12.288-9.728 5.12-4.608 8.149-7.339 9.088-8.192a71.348 71.348 0 0 1 2.688-2.56c.853-.768 1.408-1.323 1.664-1.664.853-1.11 1.707-1.664 2.56-1.664 1.28 0 1.493.853.64 2.56-.085.341-.256.725-.512 1.152-.171.341-.427.81-.768 1.408-.683 1.024-1.365 2.432-2.048 4.224a308.932 308.932 0 0 1-1.792 4.608c-.427 1.024-.683 2.176-.768 3.456-.085 1.195-.213 2.133-.384 2.816-.085 1.621 1.109 2.347 3.584 2.176 2.56-.17 6.613-2.56 12.16-7.168 5.632-5.376 8.917-8.49 9.856-9.344a71.348 71.348 0 0 1 2.688-2.56c.853-.768 1.408-1.323 1.664-1.664.853-1.11 1.707-1.664 2.56-1.664.597 0 .811.853.64 2.56-.085.341-.256.725-.512 1.152-.171.341-.427.81-.768 1.408a78.6 78.6 0 0 0-2.048 3.84c-.597 1.28-1.28 3.115-2.048 5.504-.683 2.304-.981 4.224-.896 5.76-.085 1.621 1.28 2.39 4.096 2.304 1.451-.256 3.413-.725 5.888-1.408 2.475-.768 6.101-2.432 10.88-4.992a68.662 68.662 0 0 1 3.328-1.792h.128c.597-.256 1.109-.213 1.536.128.512.256.768.725.768 1.408 0 .597-.384 1.11-1.152 1.536-.427.256-.896.47-1.408.64-4.693 1.963-8.363 3.456-11.008 4.48-2.56 1.024-4.523 1.75-5.888 2.176-1.28.427-2.389.725-3.328.896-2.901.512-5.035 0-6.4-1.536-1.28-1.45-1.664-3.499-1.152-6.144.171-.853.384-1.835.64-2.944.341-1.11.725-2.09 1.152-2.944.085-.256.171-.47.256-.64v-.256h-.128v.128l-.256.256a48.67 48.67 0 0 0-1.152.896c-5.205 4.437-8.021 6.827-8.448 7.168-.427.341-.981.768-1.664 1.28-2.731 2.133-4.907 3.456-6.528 3.968a2.105 2.105 0 0 1-.64.128zm78.115-12.672v.256a.769.769 0 0 1 .512.512c.085.256.085.512 0 .768-.085.17-.256.213-.512.128-3.584 0-8.875.853-15.872 2.56l-3.712.896-.64 1.152c-.939 1.963-2.304 3.968-4.096 6.016-1.792 2.048-3.584 3.755-5.376 5.12-3.499 2.645-5.717 2.773-6.656.384a3.206 3.206 0 0 1-.384-.768 2.846 2.846 0 0 1-.128-.896v-3.584l.256-.512a7.24 7.24 0 0 1 .384-1.28c.171-.512.341-.981.512-1.408.171-.427.299-.725.384-.896.171-.341.384-.683.64-1.024.256-.341.469-.597.64-.768l.768-.64-.512-.512c-1.707-2.133-.768-4.992 2.816-8.576 2.987-2.645 5.803-3.755 8.448-3.328 2.304.512 3.755 1.707 4.352 3.584.171.597.213 1.365.128 2.304a8.87 8.87 0 0 1-.384 2.56 19.04 19.04 0 0 0-.384 1.024c0 .256.043.384.128.384s.469-.085 1.152-.256l2.56-.64c4.352-1.28 7.509-2.005 9.472-2.176a38.88 38.88 0 0 1 5.504-.384zm-23.04 6.528.384-.64-.384.128c-.341.085-.939.17-1.792.256-.768.17-1.493.299-2.176.384a23.97 23.97 0 0 0-1.664.256l-1.28.128v.64c0 .17-.085.427-.256.768a3.206 3.206 0 0 1-.384.768c-.341.597-.725 1.408-1.152 2.432a44.572 44.572 0 0 0-1.152 3.072c-.341.939-.512 1.579-.512 1.92 0 .256.555 0 1.664-.768 1.28-.853 2.816-2.261 4.608-4.224 1.792-1.963 3.157-3.67 4.096-5.12zm2.304-3.968h-.128c1.877-3.67 1.579-5.76-.896-6.272-.683-.17-1.493-.213-2.432-.128-.939.085-1.707.256-2.304.512-1.792.768-3.328 1.92-4.608 3.456-1.28 1.536-1.792 2.816-1.536 3.84.512 1.28 3.029 1.579 7.552.896.171 0 .384-.043.64-.128.939-.085 1.621-.17 2.048-.256.427-.17.725-.384.896-.64.256-.256.512-.64.768-1.152v-.128zm20.489 4.48a162.307 162.307 0 0 1-1.152 3.328c-1.024 2.987-2.005 4.736-2.944 5.248-.768.427-1.408.427-1.92 0s-.725-1.067-.64-1.92c.085-.683.427-1.75 1.024-3.2a64.739 64.739 0 0 1 1.92-4.992 55.622 55.622 0 0 0 2.048-5.248l1.536-4.608c.171-.512.299-.939.384-1.28 0-.17.043-.256.128-.256v-.256l.512-1.536c.597-1.621 1.28-2.645 2.048-3.072 1.28-.683 2.432-.384 3.456.896.171.341.256.896.256 1.664.085.683.043 1.237-.128 1.664-.171.17-.384.512-.64 1.024s-.512 1.11-.768 1.792c-.427.683-.981 1.75-1.664 3.2a197.13 197.13 0 0 0-2.048 4.224l-.512 1.28c.427.512 1.536.555 3.328.128.939-.341 2.304-.981 4.096-1.92a441.16 441.16 0 0 0 5.76-3.2 208.581 208.581 0 0 1 7.168-3.968 12.865 12.865 0 0 0 2.176-4.48c.597-.853 1.451-1.11 2.56-.768a.834.834 0 0 1 .384.384c.427.427 0 1.792-1.28 4.096-1.195 2.219-2.347 4.139-3.456 5.76a63.158 63.158 0 0 0-2.944 5.888c-.853 2.133-1.408 3.797-1.664 4.992v.768l.256.512c.256.341.597.512 1.024.512.512 0 1.195-.17 2.048-.512 2.987-1.024 9.813-5.419 20.48-13.184 1.621-1.28 2.773-2.219 3.456-2.816v1.408c-.683.597-1.707 1.365-3.072 2.304-6.144 4.864-10.752 8.32-13.824 10.368-3.072 2.048-5.504 3.328-7.296 3.84-2.56.853-4.352.341-5.376-1.536-.256-.597-.384-1.323-.384-2.176 0-.939.128-1.877.384-2.816.341-.939.853-2.09 1.536-3.456a163.829 163.829 0 0 1 2.304-3.968c.427-.597.768-1.067 1.024-1.408.341-.427.469-.64.384-.64-.256 0-2.219 1.024-5.888 3.072-4.437 2.56-7.765 4.139-9.984 4.736-1.707.512-3.072.555-4.096.128zm76.629-1.664.128.256.768-.512c1.621-1.28 2.773-2.219 3.456-2.816v1.408c-.683.597-1.707 1.365-3.072 2.304-6.144 4.864-10.752 8.32-13.824 10.368-3.072 2.048-5.504 3.328-7.296 3.84-2.56.853-4.352.341-5.376-1.536-.256-.597-.384-1.323-.384-2.176 0-.939.128-1.877.384-2.816.341-.939.853-2.09 1.536-3.456a163.829 163.829 0 0 1 2.304-3.968c.427-.597.768-1.067 1.024-1.408.341-.427.469-.64.384-.64-.256 0-2.219 1.024-5.888 3.072-4.437 2.56-7.765 4.181-9.984 4.864-2.219.597-3.797.47-4.736-.384-1.109-1.024-1.451-2.645-1.024-4.864l.512-1.536c.256-.768.555-1.536.896-2.304.427-.853.768-1.664 1.024-2.432.256-.853.469-1.493.64-1.92.768-2.304 1.835-3.456 3.2-3.456 1.451 0 2.176.939 2.176 2.816 0 .256-.043.555-.128.896-.085.256-.341.597-.768 1.024l-1.536 1.92c-.512.597-1.067 1.408-1.664 2.432a49.274 49.274 0 0 0-1.408 3.072c-.427.939-.64 1.621-.64 2.048 0 1.11 1.195 1.365 3.584.768.939-.341 2.304-.981 4.096-1.92a441.16 441.16 0 0 0 5.76-3.2 149.524 149.524 0 0 1 5.248-2.944c1.536-.768 2.517-1.237 2.944-1.408.256-.085.469-.085.64 0 .171 0 .299.085.384.256.427.427.512.981.256 1.664-.171.683-.811 1.835-1.92 3.456a63.158 63.158 0 0 0-2.944 5.888c-.853 2.133-1.408 3.797-1.664 4.992v.768l.256.512c.256.341.597.512 1.024.512.512 0 1.195-.17 2.048-.512 2.987-1.024 9.515-5.333 19.584-12.928zm41.25 0 .128.256.768-.512c1.621-1.28 2.773-2.219 3.456-2.816v1.408c-.683.597-1.707 1.365-3.072 2.304-6.144 4.864-10.752 8.32-13.824 10.368-3.072 2.048-5.504 3.328-7.296 3.84-2.56.853-4.352.341-5.376-1.536-.256-.597-.384-1.323-.384-2.176 0-.939.128-1.877.384-2.816.341-.939.853-2.09 1.536-3.456a163.829 163.829 0 0 1 2.304-3.968c.427-.597.768-1.067 1.024-1.408.341-.427.469-.64.384-.64-.256 0-2.219 1.024-5.888 3.072-4.437 2.56-7.765 4.181-9.984 4.864-2.219.597-3.797.47-4.736-.384-1.109-1.024-1.451-2.645-1.024-4.864l.512-1.536c.256-.768.555-1.536.896-2.304.427-.853.768-1.664 1.024-2.432.256-.853.469-1.493.64-1.92.768-2.304 1.835-3.456 3.2-3.456 1.451 0 2.176.939 2.176 2.816 0 .256-.043.555-.128.896-.085.256-.341.597-.768 1.024l-1.536 1.92c-.512.597-1.067 1.408-1.664 2.432a49.274 49.274 0 0 0-1.408 3.072c-.427.939-.64 1.621-.64 2.048 0 1.11 1.195 1.365 3.584.768.939-.341 2.304-.981 4.096-1.92a441.16 441.16 0 0 0 5.76-3.2 149.524 149.524 0 0 1 5.248-2.944c1.536-.768 2.517-1.237 2.944-1.408.256-.085.469-.085.64 0 .171 0 .299.085.384.256.427.427.512.981.256 1.664-.171.683-.811 1.835-1.92 3.456a63.158 63.158 0 0 0-2.944 5.888c-.853 2.133-1.408 3.797-1.664 4.992v.768l.256.512c.256.341.597.512 1.024.512.512 0 1.195-.17 2.048-.512 2.987-1.024 9.515-5.333 19.584-12.928z" fill="#e7e1cf"/></svg>